<svg width="27" height="28" viewBox="0 0 27 28" fill="none" xmlns="http://www.w3.org/2000/svg">
<path d="M3.85714 3.82132C3.32679 3.82132 2.89286 4.25525 2.89286 4.78561V24.0713C2.89286 24.6017 3.32679 25.0356 3.85714 25.0356H23.1429C23.6732 25.0356 24.1071 24.6017 24.1071 24.0713V4.78561C24.1071 4.25525 23.6732 3.82132 23.1429 3.82132H3.85714ZM0 4.78561C0 2.65815 1.72969 0.928467 3.85714 0.928467H23.1429C25.2703 0.928467 27 2.65815 27 4.78561V24.0713C27 26.1988 25.2703 27.9285 23.1429 27.9285H3.85714C1.72969 27.9285 0 26.1988 0 24.0713V4.78561ZM12.0536 19.732V15.8749H8.19643C7.39487 15.8749 6.75 15.23 6.75 14.4285C6.75 13.6269 7.39487 12.982 8.19643 12.982H12.0536V9.1249C12.0536 8.32333 12.6984 7.67847 13.5 7.67847C14.3016 7.67847 14.9464 8.32333 14.9464 9.1249V12.982H18.8036C19.6051 12.982 20.25 13.6269 20.25 14.4285C20.25 15.23 19.6051 15.8749 18.8036 15.8749H14.9464V19.732C14.9464 20.5336 14.3016 21.1785 13.5 21.1785C12.6984 21.1785 12.0536 20.5336 12.0536 19.732Z" fill="#0E0F24"/>
</svg>
