<svg width="23" height="27" viewBox="0 0 23 27" fill="none" xmlns="http://www.w3.org/2000/svg">
<path d="M15.6071 6.57143C15.6071 5.48215 15.1744 4.43748 14.4042 3.66724C13.634 2.897 12.5893 2.46429 11.5 2.46429C10.4107 2.46429 9.36605 2.897 8.59581 3.66724C7.82557 4.43748 7.39286 5.48215 7.39286 6.57143C7.39286 7.66071 7.82557 8.70538 8.59581 9.47562C9.36605 10.2459 10.4107 10.6786 11.5 10.6786C12.5893 10.6786 13.634 10.2459 14.4042 9.47562C15.1744 8.70538 15.6071 7.66071 15.6071 6.57143ZM4.92857 6.57143C4.92857 4.82858 5.62092 3.15711 6.8533 1.92473C8.08568 0.692345 9.75715 0 11.5 0C13.2429 0 14.9143 0.692345 16.1467 1.92473C17.3791 3.15711 18.0714 4.82858 18.0714 6.57143C18.0714 8.31428 17.3791 9.98575 16.1467 11.2181C14.9143 12.4505 13.2429 13.1429 11.5 13.1429C9.75715 13.1429 8.08568 12.4505 6.8533 11.2181C5.62092 9.98575 4.92857 8.31428 4.92857 6.57143ZM2.53103 23.8214H20.4741C20.0172 20.5717 17.2243 18.0714 13.8513 18.0714H9.15893C5.78594 18.0714 2.99308 20.5717 2.53616 23.8214H2.53103ZM0 24.7609C0 19.704 4.09688 15.6071 9.1538 15.6071H13.8462C18.9031 15.6071 23 19.704 23 24.7609C23 25.6029 22.3172 26.2857 21.4752 26.2857H1.52478C0.682813 26.2857 0 25.6029 0 24.7609Z" fill="#0E0F24"/>
</svg>
