<svg width="32" height="26" viewBox="0 0 32 26" fill="none" xmlns="http://www.w3.org/2000/svg">
<path d="M3.55556 3.4445C3.06667 3.4445 2.66667 3.8445 2.66667 4.33339V22.1112C2.66667 22.6001 3.06667 23.0001 3.55556 23.0001H28.4444C28.9333 23.0001 29.3333 22.6001 29.3333 22.1112V4.33339C29.3333 3.8445 28.9333 3.4445 28.4444 3.4445H3.55556ZM0 4.33339C0 2.37228 1.59444 0.777832 3.55556 0.777832H28.4444C30.4056 0.777832 32 2.37228 32 4.33339V22.1112C32 24.0723 30.4056 25.6667 28.4444 25.6667H3.55556C1.59444 25.6667 0 24.0723 0 22.1112V4.33339ZM5.33333 7.88894C5.33333 7.41745 5.52063 6.96526 5.85403 6.63187C6.18743 6.29847 6.63962 6.11117 7.11111 6.11117C7.58261 6.11117 8.03479 6.29847 8.36819 6.63187C8.70159 6.96526 8.88889 7.41745 8.88889 7.88894C8.88889 8.36044 8.70159 8.81262 8.36819 9.14602C8.03479 9.47942 7.58261 9.66672 7.11111 9.66672C6.63962 9.66672 6.18743 9.47942 5.85403 9.14602C5.52063 8.81262 5.33333 8.36044 5.33333 7.88894ZM11.1111 7.88894C11.1111 7.15005 11.7056 6.55561 12.4444 6.55561H24.8889C25.6278 6.55561 26.2222 7.15005 26.2222 7.88894C26.2222 8.62783 25.6278 9.22228 24.8889 9.22228H12.4444C11.7056 9.22228 11.1111 8.62783 11.1111 7.88894ZM11.1111 13.2223C11.1111 12.4834 11.7056 11.8889 12.4444 11.8889H24.8889C25.6278 11.8889 26.2222 12.4834 26.2222 13.2223C26.2222 13.9612 25.6278 14.5556 24.8889 14.5556H12.4444C11.7056 14.5556 11.1111 13.9612 11.1111 13.2223ZM11.1111 18.5556C11.1111 17.8167 11.7056 17.2223 12.4444 17.2223H24.8889C25.6278 17.2223 26.2222 17.8167 26.2222 18.5556C26.2222 19.2945 25.6278 19.8889 24.8889 19.8889H12.4444C11.7056 19.8889 11.1111 19.2945 11.1111 18.5556ZM7.11111 15.0001C6.63962 15.0001 6.18743 14.8128 5.85403 14.4794C5.52063 14.146 5.33333 13.6938 5.33333 13.2223C5.33333 12.7508 5.52063 12.2986 5.85403 11.9652C6.18743 11.6318 6.63962 11.4445 7.11111 11.4445C7.58261 11.4445 8.03479 11.6318 8.36819 11.9652C8.70159 12.2986 8.88889 12.7508 8.88889 13.2223C8.88889 13.6938 8.70159 14.146 8.36819 14.4794C8.03479 14.8128 7.58261 15.0001 7.11111 15.0001ZM5.33333 18.5556C5.33333 18.0841 5.52063 17.6319 5.85403 17.2985C6.18743 16.9651 6.63962 16.7778 7.11111 16.7778C7.58261 16.7778 8.03479 16.9651 8.36819 17.2985C8.70159 17.6319 8.88889 18.0841 8.88889 18.5556C8.88889 19.0271 8.70159 19.4793 8.36819 19.8127C8.03479 20.1461 7.58261 20.3334 7.11111 20.3334C6.63962 20.3334 6.18743 20.1461 5.85403 19.8127C5.52063 19.4793 5.33333 19.0271 5.33333 18.5556Z" fill="#0E0F24"/>
</svg>
