<svg width="23" height="23" viewBox="0 0 23 23" fill="none" xmlns="http://www.w3.org/2000/svg">
<g clip-path="url(#clip0_112_723)">
<path d="M18.6875 9.34375C18.6875 11.4057 18.0182 13.3104 16.8906 14.8557L22.5777 20.5473C23.1393 21.1088 23.1393 22.0207 22.5777 22.5822C22.0162 23.1437 21.1043 23.1437 20.5428 22.5822L14.8557 16.8906C13.3104 18.0227 11.4057 18.6875 9.34375 18.6875C4.18223 18.6875 0 14.5053 0 9.34375C0 4.18223 4.18223 0 9.34375 0C14.5053 0 18.6875 4.18223 18.6875 9.34375ZM9.34375 15.8125C10.1932 15.8125 11.0344 15.6452 11.8192 15.3201C12.6041 14.995 13.3172 14.5185 13.9178 13.9178C14.5185 13.3172 14.995 12.6041 15.3201 11.8192C15.6452 11.0344 15.8125 10.1932 15.8125 9.34375C15.8125 8.49426 15.6452 7.65309 15.3201 6.86827C14.995 6.08344 14.5185 5.37033 13.9178 4.76965C13.3172 4.16897 12.6041 3.69249 11.8192 3.3674C11.0344 3.04232 10.1932 2.875 9.34375 2.875C8.49426 2.875 7.65309 3.04232 6.86827 3.3674C6.08344 3.69249 5.37033 4.16897 4.76965 4.76965C4.16897 5.37033 3.69249 6.08344 3.3674 6.86827C3.04232 7.65309 2.875 8.49426 2.875 9.34375C2.875 10.1932 3.04232 11.0344 3.3674 11.8192C3.69249 12.6041 4.16897 13.3172 4.76965 13.9178C5.37033 14.5185 6.08344 14.995 6.86827 15.3201C7.65309 15.6452 8.49426 15.8125 9.34375 15.8125Z" fill="#0E0F24"/>
</g>
<defs>
<clipPath id="clip0_112_723">
<rect width="23" height="23" fill="white"/>
</clipPath>
</defs>
</svg>
