<svg width="27" height="31" viewBox="0 0 27 31" fill="none" xmlns="http://www.w3.org/2000/svg">
<path d="M13.5 0C12.4332 0 11.5712 0.86183 11.5712 1.92857V3.08571C7.17124 3.97768 3.85618 7.87098 3.85618 12.5357V14.0665C3.85618 16.8027 2.92193 19.4605 1.21618 21.594L0.318104 22.721C-0.0314847 23.1549 -0.097786 23.7516 0.143309 24.2518C0.384405 24.752 0.890705 25.0714 1.44523 25.0714H25.5548C26.1093 25.0714 26.6156 24.752 26.8567 24.2518C27.0978 23.7516 27.0315 23.1549 26.6819 22.721L25.7838 21.6C24.0781 19.4605 23.1438 16.8027 23.1438 14.0665V12.5357C23.1438 7.87098 19.8288 3.97768 15.4288 3.08571V1.92857C15.4288 0.86183 14.5668 0 13.5 0ZM13.5 5.78571C17.231 5.78571 20.2507 8.80513 20.2507 12.5357V14.0665C20.2507 16.9533 21.0885 19.7679 22.6435 22.1786H4.35645C5.91152 19.7679 6.74933 16.9533 6.74933 14.0665V12.5357C6.74933 8.80513 9.76905 5.78571 13.5 5.78571ZM17.3575 27H13.5H9.64247C9.64247 28.0246 10.0463 29.0069 10.7696 29.7301C11.4929 30.4533 12.4753 30.8571 13.5 30.8571C14.5247 30.8571 15.5071 30.4533 16.2304 29.7301C16.9537 29.0069 17.3575 28.0246 17.3575 27Z" fill="#0E0F24"/>
</svg>
