<svg width="30" height="27" viewBox="0 0 30 27" fill="none" xmlns="http://www.w3.org/2000/svg">
<path d="M7.24795 20.9934C8.00362 20.4441 8.98188 20.3039 9.86057 20.6194C11.4129 21.1803 13.1527 21.5017 15.0038 21.5017C22.3086 21.5017 27.1882 16.7982 27.1882 12.1531C27.1882 7.50806 22.3086 2.80457 15.0038 2.80457C7.69901 2.80457 2.81938 7.50806 2.81938 12.1531C2.81938 14.0228 3.54576 15.8224 4.91065 17.365C5.41443 17.9317 5.66046 18.6796 5.60188 19.4392C5.51987 20.4967 5.26798 21.4666 4.93994 22.3255C5.93578 21.864 6.76174 21.3498 7.24795 20.9992V20.9934ZM1.24947 23.3656C1.35491 23.2078 1.45449 23.05 1.54822 22.8923C2.13401 21.9224 2.69051 20.6486 2.80181 19.2171C1.04444 17.2247 0.00759506 14.7883 0.00759506 12.1531C0.00759506 5.43969 6.72074 0 15.0038 0C23.2869 0 30 5.43969 30 12.1531C30 18.8666 23.2869 24.3063 15.0038 24.3063C12.8305 24.3063 10.7685 23.9323 8.90573 23.2604C8.20864 23.7687 7.07221 24.464 5.7249 25.0483C4.84036 25.4339 3.8328 25.7845 2.79009 25.989C2.74323 26.0007 2.69637 26.0065 2.6495 26.0182C2.39176 26.065 2.13987 26.1059 1.87626 26.1292C1.86455 26.1292 1.84697 26.1351 1.83526 26.1351C1.5365 26.1643 1.23775 26.1818 0.939 26.1818C0.558237 26.1818 0.218479 25.9539 0.0720319 25.6034C-0.0744154 25.2528 0.00759504 24.8555 0.2712 24.5867C0.511374 24.3413 0.728116 24.0784 0.933142 23.7979C1.03273 23.6635 1.12645 23.5292 1.21432 23.3948L1.23189 23.3656H1.24947Z" fill="#0E0F24"/>
</svg>
