<svg width="19" height="17" viewBox="0 0 19 17" fill="none" xmlns="http://www.w3.org/2000/svg">
<path d="M0 15.5833C0 16.3669 0.606473 17 1.35714 17H17.6429C18.3935 17 19 16.3669 19 15.5833C19 14.7997 18.3935 14.1667 17.6429 14.1667H1.35714C0.606473 14.1667 0 14.7997 0 15.5833ZM0 8.5C0 9.28359 0.606473 9.91667 1.35714 9.91667H17.6429C18.3935 9.91667 19 9.28359 19 8.5C19 7.71641 18.3935 7.08333 17.6429 7.08333H1.35714C0.606473 7.08333 0 7.71641 0 8.5ZM19 1.41667C19 0.633074 18.3935 0 17.6429 0H1.35714C0.606473 0 0 0.633074 0 1.41667C0 2.20026 0.606473 2.83333 1.35714 2.83333H17.6429C18.3935 2.83333 19 2.20026 19 1.41667Z" fill="#0E0F24"/>
</svg>
