<svg width="24" height="24" viewBox="0 0 24 24" fill="none" xmlns="http://www.w3.org/2000/svg">
<path d="M13 17H11V13H7V11H11V7H13V11H17V13H13V17ZM12 22C13.3833 22 14.6833 21.7417 15.9 21.225C17.1167 20.6917 18.175 19.975 19.075 19.075C19.975 18.175 20.6917 17.1167 21.225 15.9C21.7417 14.6833 22 13.3833 22 12C22 10.6167 21.7417 9.31667 21.225 8.1C20.6917 6.88333 19.975 5.825 19.075 4.925C18.175 4.025 17.1167 3.31667 15.9 2.8C14.6833 2.26667 13.3833 2 12 2C10.6167 2 9.31667 2.26667 8.1 2.8C6.88333 3.31667 5.825 4.025 4.925 4.925C4.025 5.825 3.31667 6.88333 2.8 8.1C2.26667 9.31667 2 10.6167 2 12C2 13.3833 2.26667 14.6833 2.8 15.9C3.31667 17.1167 4.025 18.175 4.925 19.075C5.825 19.975 6.88333 20.6917 8.1 21.225C9.31667 21.7417 10.6167 22 12 22ZM12 20C9.76667 20 7.875 19.225 6.325 17.675C4.775 16.125 4 14.2333 4 12C4 9.76667 4.775 7.875 6.325 6.325C7.875 4.775 9.76667 4 12 4C14.2333 4 16.125 4.775 17.675 6.325C19.225 7.875 20 9.76667 20 12C20 14.2333 19.225 16.125 17.675 17.675C16.125 19.225 14.2333 20 12 20Z" fill="#E85F84"/>
</svg>
