<svg width="11" height="10" viewBox="0 0 11 10" fill="none" xmlns="http://www.w3.org/2000/svg">
<path d="M2.65758 7.53242C2.93466 7.33831 3.29336 7.28874 3.61554 7.40026C4.18473 7.5985 4.82266 7.71208 5.50139 7.71208C8.17982 7.71208 9.96901 6.04971 9.96901 4.40799C9.96901 2.76627 8.17982 1.1039 5.50139 1.1039C2.82297 1.1039 1.03377 2.76627 1.03377 4.40799C1.03377 5.06881 1.30011 5.70485 1.80057 6.25002C1.98529 6.45033 2.0755 6.71466 2.05402 6.98312C2.02395 7.35689 1.93159 7.69969 1.81131 8.00325C2.17645 7.84011 2.47931 7.65839 2.65758 7.53449V7.53242ZM0.458138 8.37083C0.4968 8.31508 0.533315 8.25932 0.567681 8.20356C0.78247 7.86076 0.98652 7.41058 1.02733 6.90464C0.382962 6.20046 0.00278485 5.33933 0.00278485 4.40799C0.00278485 2.03524 2.46427 0.112671 5.50139 0.112671C8.53851 0.112671 11 2.03524 11 4.40799C11 6.78074 8.53851 8.70331 5.50139 8.70331C4.70452 8.70331 3.94847 8.57115 3.26543 8.33366C3.00984 8.51332 2.59314 8.75907 2.09913 8.96557C1.7748 9.10186 1.40536 9.22577 1.02303 9.29805C1.00585 9.30217 0.988668 9.30424 0.971485 9.30837C0.876978 9.32489 0.784618 9.33935 0.687963 9.34761C0.683667 9.34761 0.677224 9.34967 0.672928 9.34967C0.563385 9.36 0.453843 9.36619 0.3443 9.36619C0.204687 9.36619 0.080109 9.28566 0.0264117 9.16175C-0.0272857 9.03785 0.00278485 8.89742 0.0994401 8.80243C0.187504 8.7157 0.266976 8.62277 0.342152 8.52365C0.378666 8.47615 0.413033 8.42866 0.445251 8.38116L0.451695 8.37083H0.458138Z" fill="#7242E0"/>
</svg>
