<svg width="34" height="34" viewBox="0 0 34 34" fill="none" xmlns="http://www.w3.org/2000/svg">
<circle cx="17.0588" cy="16.9999" r="10" fill="black" fill-opacity="0.45"/>
<g clip-path="url(#clip0_118_860)">
<path d="M12.7868 14.1421L14.201 12.7279L17.0294 15.5563L19.8578 12.7279L21.2721 14.1421L18.4436 16.9705L21.2721 19.799L19.8578 21.2132L17.0294 18.3847L14.201 21.2132L12.7868 19.799L15.6152 16.9705L12.7868 14.1421ZM9.95835 9.89947C8.98019 10.8776 8.24362 11.9795 7.74864 13.2052C7.26545 14.4426 7.02386 15.6977 7.02386 16.9705C7.02386 18.2433 7.26545 19.4984 7.74864 20.7359C8.24362 21.9615 8.98019 23.0634 9.95835 24.0416C10.9365 25.0198 12.0384 25.7563 13.2641 26.2513C14.5015 26.7345 15.7566 26.9761 17.0294 26.9761C18.3022 26.9761 19.5514 26.7286 20.7771 26.2336C22.0145 25.7504 23.1223 25.0198 24.1005 24.0416C25.0787 23.0634 25.8093 21.9556 26.2925 20.7182C26.7875 19.4925 27.035 18.2433 27.035 16.9705C27.035 15.6977 26.7875 14.4485 26.2925 13.2229C25.8093 11.9854 25.0787 10.8776 24.1005 9.89947C23.1223 8.9213 22.0145 8.19063 20.7771 7.70744C19.5514 7.21246 18.3022 6.96497 17.0294 6.96498C15.7566 6.96498 14.5015 7.20657 13.2641 7.68976C12.0384 8.18473 10.9365 8.9213 9.95835 9.89947ZM11.3726 11.3137C12.9518 9.73448 14.8374 8.94487 17.0294 8.94487C19.2215 8.94487 21.1071 9.73448 22.6863 11.3137C24.2655 12.8929 25.0551 14.7785 25.0551 16.9705C25.0551 19.1626 24.2655 21.0482 22.6863 22.6274C21.1071 24.2066 19.2215 24.9962 17.0294 24.9962C14.8374 24.9962 12.9518 24.2066 11.3726 22.6274C9.79336 21.0482 9.00376 19.1626 9.00376 16.9705C9.00376 14.7785 9.79336 12.8929 11.3726 11.3137Z" fill="#FEF7FF"/>
</g>
<defs>
<clipPath id="clip0_118_860">
<rect width="24" height="24" fill="white" transform="matrix(0.707107 -0.707107 -0.707107 -0.707107 17.0294 33.9411)"/>
</clipPath>
</defs>
</svg>
