<svg width="11" height="11" viewBox="0 0 11 11" fill="none" xmlns="http://www.w3.org/2000/svg">
<path d="M6.95664 0.853193C6.13594 0.612417 5.27871 1.1006 5.04453 1.94442L4.92207 2.38621C4.84258 2.67337 4.69863 2.93845 4.50313 3.15934L3.40098 4.4052C3.20977 4.62167 3.2248 4.95744 3.43535 5.15403C3.6459 5.35063 3.97246 5.33517 4.16367 5.11869L5.26582 3.87284C5.56875 3.53045 5.79004 3.12179 5.9125 2.67779L6.03496 2.236C6.1123 1.95546 6.39805 1.792 6.67305 1.87152C6.94805 1.95104 7.10488 2.24484 7.02754 2.52758L6.90508 2.96937C6.78262 3.40896 6.58926 3.82424 6.33359 4.19535C6.22187 4.3566 6.20898 4.56866 6.29707 4.74538C6.38516 4.92209 6.56133 5.03254 6.75469 5.03254H9.625C9.81406 5.03254 9.96875 5.19158 9.96875 5.38597C9.96875 5.53618 9.87637 5.66651 9.74531 5.71732C9.58633 5.77917 9.46602 5.91612 9.4252 6.08621C9.38438 6.2563 9.42734 6.43523 9.53906 6.56556C9.59277 6.62741 9.625 6.70914 9.625 6.79971C9.625 6.972 9.50469 7.11559 9.3457 7.14651C9.16953 7.18185 9.02129 7.30777 8.95898 7.48227C8.89668 7.65678 8.92461 7.85117 9.03633 7.99696C9.08145 8.0566 9.10938 8.13171 9.10938 8.21565C9.10938 8.36365 9.01914 8.49397 8.89023 8.54478C8.64316 8.64418 8.50996 8.91809 8.58086 9.18096C8.58945 9.20968 8.59375 9.24281 8.59375 9.27595C8.59375 9.47033 8.43906 9.62938 8.25 9.62938H6.15527C5.88457 9.62938 5.61816 9.54765 5.39258 9.39302L4.06699 8.48514C3.83066 8.32168 3.51055 8.38795 3.35156 8.63314C3.19258 8.87833 3.25703 9.20526 3.49551 9.36872L4.82109 10.2766C5.21641 10.5483 5.68047 10.6919 6.15527 10.6919H8.25C8.99551 10.6919 9.60137 10.0822 9.625 9.32233C9.93867 9.06389 10.1406 8.66627 10.1406 8.21786C10.1406 8.11845 10.1299 8.02347 10.1127 7.93069C10.4436 7.67224 10.6562 7.26359 10.6562 6.80412C10.6562 6.66054 10.6348 6.52138 10.5961 6.39105C10.8453 6.13039 11 5.77696 11 5.38597C11 4.60621 10.3855 3.97224 9.625 3.97224H7.64199C7.74297 3.74251 7.82891 3.50394 7.89551 3.26096L8.01797 2.81916C8.25215 1.97534 7.77734 1.09397 6.95664 0.853193ZM0.6875 4.32567C0.307227 4.32567 0 4.64155 0 5.03254V9.9806C0 10.3716 0.307227 10.6875 0.6875 10.6875H2.0625C2.44277 10.6875 2.75 10.3716 2.75 9.9806V5.03254C2.75 4.64155 2.44277 4.32567 2.0625 4.32567H0.6875Z" fill="#FF779D"/>
</svg>
